# xmcd
#
# Track frame offsets:
#	150
#	16922
#	30691
#	48691
#	61312
#	81775
#	99072
#	112841
#	130837
#	143476
#
# Disc length: 2185
#
# Revision: 1
# Processed by: cddbd v1.5.2PL0 Copyright (c) Steve Scherf et al.
# Submitted via: kJams Pro (development) 1.0patch49.26
#
DISCID=7308870a
DTITLE=Gary Ennis - Songs of Gary Ennis Volume 2
DYEAR=2000
DGENRE=Country
TTITLE0=Gary Ennis - I See Love
TTITLE1=Gary Ennis - Sky of Gold
TTITLE2=Gary Ennis - When You Hold Me
TTITLE3=Gary Ennis - I Know That You Know
TTITLE4=Gary Ennis - Love Is Like a Dove
TTITLE5=Gary Ennis - I See Love (Vocal)
TTITLE6=Gary Ennis - Sky of Gold (Vocal)
TTITLE7=Gary Ennis - When You Hold Me (Vocal)
TTITLE8=Gary Ennis - I Know That You Know (Vocal)
TTITLE9=Gary Ennis - When You Hold Me (Vocal)
EXTD=
EXTT0=
EXTT1=
EXTT2=
EXTT3=
EXTT4=
EXTT5=
EXTT6=
EXTT7=
EXTT8=
EXTT9=
PLAYORDER=
